<svg xmlns="http://www.w3.org/2000/svg" width="68.712" height="34.069" viewBox="0 0 68.712 34.069">
    <g data-name="Group 13714">
        <g data-name="Group 13685" transform="translate(19.047 29.03)">
            <rect data-name="Rectangle 1550" width="29.08" height="2.63" rx="1.315" transform="translate(.829)"/>
            <path data-name="Path 9451" d="M918.8 587.245a.615.615 0 0 0 .678.521h29.431a.615.615 0 0 0 .678-.521.615.615 0 0 0-.678-.521h-29.428a.615.615 0 0 0-.678.521z" transform="translate(-918.803 -584.821)" style="fill:#515155"/>
            <path data-name="Path 9452" d="M919.3 587.036a.709.709 0 0 1 .621-.311h29.431a.709.709 0 0 1 .621.311z" transform="translate(-919.24 -584.821)" style="opacity:.4;fill:#c4c4c4"/>
        </g>
        <path data-name="Path 9453" d="m761.764 467.562 50.264-.989a63.644 63.644 0 0 1 16.243 5.093 2.208 2.208 0 0 1 .783 1.59c.031.194.056.391.081.587.21.954.672 3.063-.195 3.995-1.271 1.367-.449.532-2.015 2.359-.049.057-.133.056-.2.081l-59.241-.157-5.181-1.66-.829-2.485v-2.168z" transform="translate(-761.409 -449.542)" style="fill:#906fe2"/>
        <path data-name="Path 9454" d="m827.933 509.165.339.165a2.208 2.208 0 0 1 .783 1.59c.031.194.056.391.081.587.21.954.672 3.063-.195 4-1.271 1.367-.449.532-2.015 2.359-.049.057-.133.056-.2.081l-59.241-.157-5.181-1.66-.829-2.485v-2.168l.107-2.307z" transform="translate(-761.409 -487.206)" style="isolation:isolate;mix-blend-mode:multiply;fill:#906fe2"/>
        <path data-name="Path 9455" d="M829.429 548.382a2.588 2.588 0 0 1-.506 1.8c-1.271 1.367-.449.532-2.015 2.359-.049.057-.133.056-.2.081l-59.241-.157-5.181-1.66-.807-2.422z" transform="translate(-761.391 -521.885)" style="isolation:isolate;mix-blend-mode:multiply;fill:#906fe2"/>
        <path data-name="Path 9456" d="M768.021 322.638c.1-.248.723-2.282 3.837-2.527 11.7-.92 37.5-1.034 47.077.047 1.687.19 6.795 5.406 6.811 5.426a38.98 38.98 0 0 1 8.162 16.81l-67.091-4.042s.561-14.152 1.204-15.714z" transform="translate(-766.488 -319.385)" style="fill:#906fe2"/>
        <path data-name="Path 9457" d="M877.54 321.372a4.582 4.582 0 0 1 3.046-1.261c11.7-.92 37.5-1.034 47.077.047a5.746 5.746 0 0 1 2.162 1.214z" transform="translate(-875.216 -319.385)" style="mix-blend-mode:screen;isolation:isolate;fill:#906fe2"/>
        <path data-name="Path 9458" d="M788.162 365.662A3.761 3.761 0 0 1 787 364.23c-.361-.7-.669-1.424-1.04-2.119q-.612-1.149-1.29-2.261a41.842 41.842 0 0 0-2.662-3.839 46.457 46.457 0 0 0-1.476-1.836c-.248-.291-.547-.537-.81-.815-.288-.3-.749-.762-.722-1.221a.519.519 0 0 1 .48-.5 63.571 63.571 0 0 1 2.577 2.468 40.238 40.238 0 0 1 6.752 11.831 1.907 1.907 0 0 1-.647-.276z" transform="translate(-722.801 -347.911)" style="fill:#00384b"/>
        <g data-name="Group 13690">
            <g data-name="Group 13687">
                <path data-name="Path 9459" d="M819.268 504.1a6.012 6.012 0 0 0-12.008 0 5.453 5.453 0 0 0 .543 2.375h-1.1a7.231 7.231 0 1 1 13.117 0h-1.1a5.453 5.453 0 0 0 .548-2.375z" transform="translate(-757.613 -475.735)" style="fill:#201e1e"/>
                <g data-name="Group 13686">
                    <path data-name="Path 9460" d="M806.034 503.424a7.231 7.231 0 1 1 13.789 3.048h-.168a6.949 6.949 0 1 0-12.781 0h-.168a7.2 7.2 0 0 1-.672-3.048z" transform="translate(-757.613 -475.735)" style="fill:#201e1e;mix-blend-mode:screen;isolation:isolate"/>
                </g>
                <path data-name="Path 9461" d="M55.652 22.653a5.862 5.862 0 0 1 6 5.708 5.454 5.454 0 0 1-.543 2.375H50.191a5.453 5.453 0 0 1-.543-2.375 5.862 5.862 0 0 1 6.004-5.708z"/>
            </g>
            <g data-name="Group 13689" transform="translate(50.547 23.858)">
                <circle data-name="Ellipse 9" cx="5.105" cy="5.105" style="fill:#363635" r="5.105"/>
                <circle data-name="Ellipse 10" cx="5.105" cy="5.105" style="fill:#222" r="5.105"/>
                <path data-name="Path 9462" d="M1.641 5.105a3.464 3.464 0 1 0 3.464-3.464 3.464 3.464 0 0 0-3.464 3.464z"/>
                <path data-name="Path 9463" d="M841.194 545.529a3.162 3.162 0 1 0 3.162-3.162 3.162 3.162 0 0 0-3.162 3.162z" transform="translate(-839.251 -540.424)" style="fill:#d5d3cb"/>
                <g data-name="Group 13688">
                    <path data-name="Path 9464" d="M869.9 548.485a.21.21 0 0 1 .014-.11 2.1 2.1 0 0 1 1.25-.535.288.288 0 0 1 .121.057.469.469 0 0 1 .042.076v1.759a.421.421 0 0 1-.035.067l-.031.015a.373.373 0 0 1-.084-.018l-1.262-1.262a.375.375 0 0 1-.015-.049z" transform="translate(-866.378 -545.264)" style="fill:#4c4c49"/>
                    <path data-name="Path 9465" d="M873.751 557.768a.207.207 0 0 1-.068-.087 2.1 2.1 0 0 1 .505-1.262.286.286 0 0 1 .126-.045.488.488 0 0 1 .084.024l1.243 1.243a.416.416 0 0 1 .023.072l-.011.033a.368.368 0 0 1-.072.047H873.8a.327.327 0 0 1-.049-.025z" transform="translate(-871.156 -552.81)" style="fill:#4c4c49"/>
                    <path data-name="Path 9466" d="M874.39 573.139a.208.208 0 0 1-.11-.012 2.105 2.105 0 0 1-.557-1.24.289.289 0 0 1 .055-.122.465.465 0 0 1 .076-.043l1.758-.031a.427.427 0 0 1 .067.034l.016.031a.358.358 0 0 1-.016.084l-1.24 1.284a.433.433 0 0 1-.049.015z" transform="translate(-871.192 -566.354)" style="fill:#4c4c49"/>
                    <path data-name="Path 9467" d="M871.214 576.352a.208.208 0 0 1-.088.067 2.106 2.106 0 0 1-1.255-.523.292.292 0 0 1-.044-.127.506.506 0 0 1 .026-.084l1.261-1.225a.39.39 0 0 1 .072-.021l.032.011a.367.367 0 0 1 .046.073l-.025 1.784a.4.4 0 0 1-.025.045z" transform="translate(-866.309 -568.784)" style="fill:#4c4c49"/>
                    <path data-name="Path 9468" d="M856.229 548.485a.207.207 0 0 0-.014-.11 2.1 2.1 0 0 0-1.25-.535.287.287 0 0 0-.121.057.469.469 0 0 0-.042.076v1.759a.411.411 0 0 0 .035.067l.031.015a.379.379 0 0 0 .084-.018l1.262-1.262a.391.391 0 0 0 .015-.049z" transform="translate(-849.538 -545.264)" style="fill:#4c4c49"/>
                    <path data-name="Path 9469" d="M848.153 557.768a.207.207 0 0 0 .068-.087 2.1 2.1 0 0 0-.505-1.262.285.285 0 0 0-.126-.045.486.486 0 0 0-.084.024l-1.244 1.243a.426.426 0 0 0-.022.072c0 .011.007.022.011.033a.368.368 0 0 0 .072.047h1.785a.324.324 0 0 0 .045-.025z" transform="translate(-840.537 -552.81)" style="fill:#4c4c49"/>
                    <path data-name="Path 9470" d="M847.585 573.139a.209.209 0 0 0 .11-.012 2.106 2.106 0 0 0 .557-1.24.287.287 0 0 0-.055-.122.478.478 0 0 0-.076-.043l-1.758-.031a.439.439 0 0 0-.067.034l-.016.031a.364.364 0 0 0 .016.084l1.24 1.284a.412.412 0 0 0 .049.015z" transform="translate(-840.573 -566.354)" style="fill:#4c4c49"/>
                    <path data-name="Path 9471" d="M854.852 576.352a.206.206 0 0 0 .088.067 2.1 2.1 0 0 0 1.255-.523.292.292 0 0 0 .044-.127.506.506 0 0 0-.026-.084l-1.261-1.225a.394.394 0 0 0-.072-.021l-.032.011a.366.366 0 0 0-.046.073l.025 1.784a.361.361 0 0 0 .025.045z" transform="translate(-849.546 -568.784)" style="fill:#4c4c49"/>
                    <path data-name="Path 9472" d="M868.562 569.945z" transform="translate(-863.46 -564.811)" style="fill:#4c4c49"/>
                    <path data-name="Path 9473" d="M868.562 569.945z" transform="translate(-863.46 -564.811)" style="fill:#4c4c49"/>
                </g>
                <path data-name="Path 9474" d="M860.5 562.6a.929.929 0 1 0 .929-.929.929.929 0 0 0-.929.929z" transform="translate(-856.321 -557.495)" style="fill:#d5d3cb"/>
                <path data-name="Path 9475" d="M871.725 564.867a.116.116 0 1 0 .116-.116.116.116 0 0 0-.116.116z" transform="translate(-867.221 -560.218)" style="fill:#4c4c49"/>
                <path data-name="Path 9476" d="M867.562 563.44a.116.116 0 1 0 .116-.116.116.116 0 0 0-.116.116z" transform="translate(-862.577 -558.956)" style="fill:#4c4c49"/>
                <path data-name="Path 9477" d="M863.325 565.02a.116.116 0 1 0 .116-.116.116.116 0 0 0-.116.116z" transform="translate(-857.85 -560.354)" style="fill:#4c4c49"/>
                <path data-name="Path 9478" d="M871.725 573.6a.116.116 0 1 1 .116.116.116.116 0 0 1-.116-.116z" transform="translate(-867.221 -567.944)" style="fill:#4c4c49"/>
                <path data-name="Path 9479" d="M873.683 569.432a.116.116 0 1 1 .116.116.116.116 0 0 1-.116-.116z" transform="translate(-869.406 -564.255)" style="fill:#4c4c49"/>
                <path data-name="Path 9480" d="M861.366 569.432a.116.116 0 1 1 .115.116.115.115 0 0 1-.115-.116z" transform="translate(-855.664 -564.255)" style="fill:#4c4c49"/>
                <path data-name="Path 9481" d="M867.562 575.032a.116.116 0 1 1 .116.116.116.116 0 0 1-.116-.116z" transform="translate(-862.577 -569.207)" style="fill:#4c4c49"/>
                <path data-name="Path 9482" d="M863.325 573.452a.116.116 0 1 1 .116.116.116.116 0 0 1-.116-.116z" transform="translate(-857.85 -567.81)" style="fill:#4c4c49"/>
            </g>
        </g>
        <g data-name="Group 13691">
            <path data-name="Path 9483" d="M755.734 554.011c-.028-.356-.058-.711-.08-1.067h6.537a.584.584 0 0 1 .2.052.437.437 0 0 1 .2.226l-.027 1.424s-1.351 2.027-2.281 2.325a3.848 3.848 0 0 1-1.547.213l-2.7.011c.002-.163-.266-2.711-.302-3.184z" transform="translate(-693.882 -525.92)" style="fill:#201e1e"/>
            <path data-name="Path 9484" d="M755.653 552.945h4.986a.583.583 0 0 1 .2.052.436.436 0 0 1 .2.226l-.024 1.259s-5.34-1.182-5.362-1.537z" transform="translate(-692.331 -525.92)" style="opacity:.6;fill:#222;mix-blend-mode:screen;isolation:isolate"/>
        </g>
        <g data-name="Group 13694">
            <g data-name="Group 13692">
                <path data-name="Path 9485" d="M764.893 503.086a4.015 4.015 0 0 1 2.036.257 8.4 8.4 0 0 1 1.888 1 2.355 2.355 0 0 1 .284.484 6.488 6.488 0 0 1 .255 1.6 1.343 1.343 0 0 1-.111.421c-.2.4-2.33.084-3.764-1.086-.456-.271-1.317-2.629-.588-2.676z" transform="translate(-701.682 -481.811)" style="fill:#d5d3cb"/>
            </g>
            <path data-name="Path 9486" d="M783.352 507.794c.1.726.555 1.262 1.011 1.2s.742-.7.639-1.43-.555-1.261-1.011-1.2-.742.705-.639 1.43z" transform="translate(-719.514 -484.723)" style="fill:#e3edee;opacity:.6"/>
            <path data-name="Path 9487" d="M770.167 520.233c.015.443.253.794.531.784s.491-.376.476-.819-.253-.794-.531-.784-.491.377-.476.819z" transform="translate(-704.143 -496.269)" style="fill:#e3d8c3"/>
            <g data-name="Group 13693" style="mix-blend-mode:screen;isolation:isolate;opacity:.4">
                <path data-name="Path 9488" d="M764.611 503.079a3.805 3.805 0 0 1 1.9.264 8.4 8.4 0 0 1 1.888 1 2.352 2.352 0 0 1 .284.484 6.482 6.482 0 0 1 .255 1.6 1.527 1.527 0 0 1-.074.333 8.013 8.013 0 0 0-4.253-3.681z" transform="translate(-701.268 -481.811)" style="fill:#fff"/>
            </g>
        </g>
        <g data-name="Group 13695">
            <path data-name="Path 9489" d="M773.511 566.057a.973.973 0 0 0-1.111 1.043 1.409 1.409 0 0 0 1.281 1.231c.66.052 2.157-.335 2.11-.963s-1.619-1.258-2.28-1.311z" transform="translate(-709.019 -537.511)" style="fill:#222;mix-blend-mode:screen;isolation:isolate"/>
            <path data-name="Path 9490" d="M64.627 28.685a.918.918 0 0 0-1.048.983 1.33 1.33 0 0 0 1.208 1.161c.623.049 2.035-.317 1.99-.909s-1.527-1.185-2.15-1.235z"/>
        </g>
        <g data-name="Group 13701">
            <g data-name="Group 13699">
                <g data-name="Group 13696">
                    <path data-name="Path 9491" d="M1187.483 504.1a6.011 6.011 0 0 0-12.007 0 5.452 5.452 0 0 0 .543 2.375h-1.1a7.231 7.231 0 1 1 13.117 0h-1.1a5.45 5.45 0 0 0 .547-2.375z" transform="translate(-1168.434 -475.735)" style="fill:#201e1e"/>
                    <path data-name="Path 9492" d="M13.046 22.653a5.862 5.862 0 0 1 6 5.708 5.452 5.452 0 0 1-.543 2.375H7.59a5.448 5.448 0 0 1-.543-2.375 5.861 5.861 0 0 1 5.999-5.708z"/>
                </g>
                <g data-name="Group 13698">
                    <path data-name="Path 9493" d="M1192.618 530.683a5.105 5.105 0 1 0 5.105-5.105 5.105 5.105 0 0 0-5.105 5.105z" transform="translate(-1184.677 -501.72)" style="fill:#363635"/>
                    <path data-name="Path 9494" d="M1192.618 530.683a5.105 5.105 0 1 0 5.105-5.105 5.105 5.105 0 0 0-5.105 5.105z" transform="translate(-1184.677 -501.72)" style="fill:#222"/>
                    <path data-name="Path 9495" d="M9.579 28.963a3.464 3.464 0 1 0 3.464-3.464 3.464 3.464 0 0 0-3.464 3.464z"/>
                    <path data-name="Path 9496" d="M1209.409 545.529a3.162 3.162 0 1 0 3.162-3.162 3.162 3.162 0 0 0-3.162 3.162z" transform="translate(-1199.525 -516.566)" style="fill:#d5d3cb"/>
                    <g data-name="Group 13697">
                        <path data-name="Path 9497" d="M1238.112 548.485a.207.207 0 0 1 .014-.11 2.1 2.1 0 0 1 1.25-.535.29.29 0 0 1 .122.057.477.477 0 0 1 .042.076v1.759a.4.4 0 0 1-.035.067l-.031.015a.372.372 0 0 1-.084-.018l-1.262-1.262a.373.373 0 0 1-.016-.049z" transform="translate(-1226.651 -521.406)" style="fill:#4c4c49"/>
                        <path data-name="Path 9498" d="M1241.966 557.768a.207.207 0 0 1-.068-.087 2.1 2.1 0 0 1 .505-1.262.286.286 0 0 1 .126-.045.488.488 0 0 1 .084.024l1.243 1.243a.4.4 0 0 1 .022.072c0 .011-.007.022-.011.033a.368.368 0 0 1-.072.047h-1.784a.327.327 0 0 1-.045-.025z" transform="translate(-1231.43 -528.952)" style="fill:#4c4c49"/>
                        <path data-name="Path 9499" d="M1242.6 573.139a.208.208 0 0 1-.11-.012 2.1 2.1 0 0 1-.557-1.24.285.285 0 0 1 .055-.122.465.465 0 0 1 .076-.043l1.758-.031a.446.446 0 0 1 .067.034l.016.031a.352.352 0 0 1-.017.084l-1.239 1.284a.436.436 0 0 1-.049.015z" transform="translate(-1231.465 -542.496)" style="fill:#4c4c49"/>
                        <path data-name="Path 9500" d="M1239.429 576.352a.207.207 0 0 1-.088.067 2.106 2.106 0 0 1-1.255-.523.294.294 0 0 1-.044-.127.506.506 0 0 1 .026-.084l1.261-1.225a.393.393 0 0 1 .072-.021l.033.011a.366.366 0 0 1 .046.073l-.025 1.784a.361.361 0 0 1-.026.045z" transform="translate(-1226.583 -544.926)" style="fill:#4c4c49"/>
                        <path data-name="Path 9501" d="M1224.444 548.485a.212.212 0 0 0-.013-.11 2.105 2.105 0 0 0-1.25-.535.289.289 0 0 0-.121.057.478.478 0 0 0-.042.076v1.759a.4.4 0 0 0 .035.067l.031.015a.38.38 0 0 0 .084-.018l1.262-1.262a.373.373 0 0 0 .014-.049z" transform="translate(-1209.812 -521.406)" style="fill:#4c4c49"/>
                        <path data-name="Path 9502" d="M1216.367 557.768a.207.207 0 0 0 .068-.087 2.1 2.1 0 0 0-.505-1.262.287.287 0 0 0-.126-.045.491.491 0 0 0-.084.024l-1.244 1.243a.414.414 0 0 0-.022.072.307.307 0 0 0 .011.033.365.365 0 0 0 .072.047h1.784a.327.327 0 0 0 .046-.025z" transform="translate(-1200.81 -528.952)" style="fill:#4c4c49"/>
                        <path data-name="Path 9503" d="M1215.8 573.139a.207.207 0 0 0 .11-.012 2.1 2.1 0 0 0 .557-1.24.288.288 0 0 0-.055-.122.471.471 0 0 0-.076-.043l-1.758-.031a.423.423 0 0 0-.067.034.301.301 0 0 0-.016.031.37.37 0 0 0 .016.084l1.24 1.284a.423.423 0 0 0 .049.015z" transform="translate(-1200.846 -542.496)" style="fill:#4c4c49"/>
                        <path data-name="Path 9504" d="M1223.067 576.352a.207.207 0 0 0 .088.067 2.1 2.1 0 0 0 1.255-.523.288.288 0 0 0 .044-.127.463.463 0 0 0-.026-.084l-1.261-1.225a.392.392 0 0 0-.072-.021l-.032.011a.366.366 0 0 0-.046.073l.025 1.784a.4.4 0 0 0 .025.045z" transform="translate(-1209.82 -544.926)" style="fill:#4c4c49"/>
                        <path data-name="Path 9505" d="M1236.777 569.945z" transform="translate(-1223.735 -540.953)" style="fill:#4c4c49"/>
                        <path data-name="Path 9506" d="M1236.777 569.945z" transform="translate(-1223.735 -540.953)" style="fill:#4c4c49"/>
                    </g>
                    <path data-name="Path 9507" d="M1228.712 562.6a.929.929 0 1 0 .929-.929.929.929 0 0 0-.929.929z" transform="translate(-1216.595 -533.638)" style="fill:#d5d3cb"/>
                    <path data-name="Path 9508" d="M1239.94 564.867a.115.115 0 1 0 .115-.116.116.116 0 0 0-.115.116z" transform="translate(-1227.495 -536.36)" style="fill:#4c4c49"/>
                    <path data-name="Path 9509" d="M1235.777 563.44a.116.116 0 1 0 .115-.116.116.116 0 0 0-.115.116z" transform="translate(-1222.851 -535.098)" style="fill:#4c4c49"/>
                    <path data-name="Path 9510" d="M1231.54 565.02a.116.116 0 1 0 .116-.116.116.116 0 0 0-.116.116z" transform="translate(-1218.124 -536.496)" style="fill:#4c4c49"/>
                    <path data-name="Path 9511" d="M1239.94 573.6a.115.115 0 1 1 .115.116.116.116 0 0 1-.115-.116z" transform="translate(-1227.495 -544.086)" style="fill:#4c4c49"/>
                    <path data-name="Path 9512" d="M1241.9 569.432a.116.116 0 1 1 .116.116.116.116 0 0 1-.116-.116z" transform="translate(-1229.68 -540.397)" style="fill:#4c4c49"/>
                    <path data-name="Path 9513" d="M1229.581 569.432a.116.116 0 1 1 .115.116.115.115 0 0 1-.115-.116z" transform="translate(-1215.938 -540.397)" style="fill:#4c4c49"/>
                    <path data-name="Path 9514" d="M1235.777 575.032a.116.116 0 1 1 .115.116.115.115 0 0 1-.115-.116z" transform="translate(-1222.851 -545.349)" style="fill:#4c4c49"/>
                    <path data-name="Path 9515" d="M1231.54 573.452a.116.116 0 1 1 .116.116.116.116 0 0 1-.116-.116z" transform="translate(-1218.124 -543.952)" style="fill:#4c4c49"/>
                </g>
            </g>
            <g data-name="Group 13700">
                <path data-name="Path 9516" d="M1174.249 503.424a7.231 7.231 0 1 1 13.789 3.048h-.167a6.949 6.949 0 1 0-12.781 0h-.168a7.2 7.2 0 0 1-.673-3.048z" transform="translate(-1168.434 -475.735)" style="fill:#201e1e;mix-blend-mode:screen;isolation:isolate"/>
            </g>
        </g>
        <g data-name="Group 13702">
            <path data-name="Path 9517" d="m1342.292 525.375-.619.073s-.171.016-.179.244v.868s.013.135.114.111l.6-.142a.189.189 0 0 0 .142-.135 7.584 7.584 0 0 0 .073-.9s-.011-.155-.131-.119z" transform="translate(-1341.489 -501.536)" style="fill:#5a0e07"/>
            <path data-name="Path 9518" d="m1344.485 527.309-.422.049s-.116.011-.122.166v.591s.009.092.077.076l.406-.1a.129.129 0 0 0 .1-.092 5.151 5.151 0 0 0 .05-.611s-.019-.12-.089-.079z" transform="translate(-1343.927 -503.243)" style="fill:#906fe2"/>
        </g>
        <g data-name="Group 13703">
            <path data-name="Path 9519" d="m812.116 503.966-2.1-.1a.77.77 0 0 0 .247.424c.216.2 1.245.146 1.245.146s.463.025.609-.122.17-.34-.001-.348z" transform="translate(-749.814 -482.524)" style="fill:#e86408"/>
            <path data-name="Path 9520" d="m812.124 504.975-1.4-.063a.51.51 0 0 0 .164.282c.144.13.828.1.828.1s.308.016.405-.081.117-.232.003-.238z" transform="translate(-749.864 -483.445)" style="opacity:.5;fill:#e86408;mix-blend-mode:screen;isolation:isolate"/>
        </g>
        <g data-name="Group 13704">
            <path data-name="Path 9521" d="M48.185 3.29a16.219 16.219 0 0 1 4.727.769c2.678 1.027 8.841 10.2 9.638 13.205.016.141.023.339-.1.437a.934.934 0 0 1-.37.1h-7.738s-4.577.208-5.307-2.4c-.641-2.288-1.715-7.685-2.27-9.994-.015-.181-.057-.358-.083-.537-.073-1.1.218-1.677 1.503-1.58z"/>
            <path data-name="Path 9522" d="M812.465 350.3a15.564 15.564 0 0 1 4.534.738c2.693 1.033 9.058 10.648 9.319 13.041a.645.645 0 0 1-.056.091.353.353 0 0 1-.094.051h-7.8s-4.39.2-5.09-2.3c-.615-2.2-1.645-7.372-2.177-9.586-.015-.173-.054-.343-.079-.516-.073-1.056.206-1.609 1.443-1.519z" transform="translate(-764.011 -346.716)" style="fill:#cee7ef"/>
        </g>
        <path data-name="Path 9523" d="M1.916 16.037c0 .995 1.223 1.746 3.161 1.746h37.332c.357 0 3.865.024 3.721-1.633l-.49-11a2.064 2.064 0 0 0-2.235-2.024H5.077a2.113 2.113 0 0 0-2.1 1.069z"/>
        <path data-name="Path 9524" d="M954.629 350.809a.686.686 0 0 1 .42-.516h12.824a2 2 0 0 1 2.192 1.894l.481 10.292c.142 1.551-3.3 1.529-3.648 1.529h-11.67a.977.977 0 0 1-.213-.09.5.5 0 0 1-.239-.341c-.017-.791-.109-10.596-.147-12.768z" transform="translate(-924.862 -346.717)" style="fill:#cee7ef"/>
        <path data-name="Path 9525" d="M1221.209 351.291a2.033 2.033 0 0 1 2.007-1h9.072c.2.048.554.175.536.482-.033.572-.48 8.666-.741 12.647a.886.886 0 0 1-.216.315 1.309 1.309 0 0 1-.632.271h-8.019c-1.851 0-3.019-.7-3.019-1.634z" transform="translate(-1217.865 -346.714)" style="fill:#cee7ef"/>
        <path data-name="Path 9526" d="M1096.691 363.858a.737.737 0 0 1-.245-.421c.113-2.051.59-11.986.621-12.707a.576.576 0 0 1 .075-.16.8.8 0 0 1 .622-.277h12.293a.669.669 0 0 1 .326.151.9.9 0 0 1 .24.392c-.076 4.234.163 8.47.142 12.705a.67.67 0 0 1-.122.264.608.608 0 0 1-.358.2h-13.32a.867.867 0 0 1-.274-.147z" transform="translate(-1081.486 -346.717)" style="fill:#cee7ef"/>
        <path data-name="Path 9527" d="M798.463 361.688q-.51-.931-1.06-1.838a41.818 41.818 0 0 0-2.662-3.839 46.457 46.457 0 0 0-1.476-1.836c-.248-.291-.547-.537-.81-.815-.288-.3-.749-.762-.722-1.221a.519.519 0 0 1 .48-.5 63.571 63.571 0 0 1 2.577 2.468 39.683 39.683 0 0 1 5.279 8.313q-.798-.374-1.606-.732z" transform="translate(-735.532 -347.911)" style="fill:#fff"/>
        <path data-name="Path 9528" d="M780.594 440.408a40.809 40.809 0 0 1 1.408 3.382 1.907 1.907 0 0 1-.649-.28 3.76 3.76 0 0 1-1.161-1.432c-.361-.7-.669-1.424-1.04-2.119-.05-.094-.1-.187-.152-.28q.8.353 1.594.729z" transform="translate(-715.993 -425.758)" style="fill:#cee7ef"/>
        <path data-name="Path 9529" d="M837.224 357.059c-1.857-.534-3.729-1-5.612-1.41a168.28 168.28 0 0 0-.736-3.313c-.015-.173-.054-.343-.079-.516-.075-1.058.2-1.611 1.44-1.518a15.566 15.566 0 0 1 4.534.738c1.7.652 4.864 4.724 7.031 8.241q-3.234-1.263-6.578-2.222z" transform="translate(-783.784 -346.716)" style="fill:#fff"/>
        <path data-name="Path 9530" d="M957.658 353.173a537.538 537.538 0 0 0-.031-2.364.686.686 0 0 1 .42-.516h12.824a2 2 0 0 1 2.192 1.894l.138 2.956a140.671 140.671 0 0 0-15.543-1.97z" transform="translate(-927.859 -346.717)" style="fill:#fff"/>
        <path data-name="Path 9531" d="M1225.249 352.185a212.861 212.861 0 0 0-5.052-.08l.074-.814a2.033 2.033 0 0 1 2.007-1h9.072c.2.048.554.175.536.482l-.091 1.617q-3.273-.114-6.546-.205z" transform="translate(-1216.927 -346.714)" style="fill:#fff"/>
        <path data-name="Path 9532" d="M1111.3 353.122q-2.39-.177-4.781-.31a434.504 434.504 0 0 0-8.84-.4l.079-1.684a.57.57 0 0 1 .075-.16.8.8 0 0 1 .622-.277h12.293a.669.669 0 0 1 .326.151.9.9 0 0 1 .24.392q-.014 1.146-.014 2.288z" transform="translate(-1082.18 -346.717)" style="fill:#fff"/>
        <g data-name="Group 13707">
            <path data-name="Path 9533" d="m61.344 16.285 1.594.759s.726.366.2.759a1.55 1.55 0 0 1-.918.217 3.078 3.078 0 0 1-1.329-.354z"/>
            <g data-name="Group 13705">
                <path data-name="Path 9534" d="M812.85 441.152c.322-.9 1.96-.772 1.963-.772.7.052 1.231.761 1.629 1.515.459.869.118 2.647-.745 2.481a12.433 12.433 0 0 1-2.211-.518c-.417-.121-1.028-1.613-.636-2.706z" transform="translate(-754.538 -426.374)" style="fill:#222"/>
            </g>
            <g data-name="Group 13706">
                <path data-name="Path 9535" d="M812.877 445.4a.847.847 0 0 1 .119-.221 1.607 1.607 0 0 0 .367 1.166 2.863 2.863 0 0 0 1.41.764c.31.086.615.2.931.258a1.214 1.214 0 0 0 .83-.027.637.637 0 0 0 .136-.111c-.034.765-.376 1.506-.946 1.4a12.425 12.425 0 0 1-2.211-.518c-.413-.124-1.028-1.611-.636-2.711z" transform="translate(-754.565 -430.625)" style="fill:#141412"/>
            </g>
        </g>
        <path data-name="Path 9536" d="M939.5 476.816h44.4s-23.626 2.473-44.4 0z" transform="translate(-936.457 -458.6)" style="mix-blend-mode:screen;isolation:isolate;fill:#906fe2"/>
        <g data-name="Group 13711">
            <path data-name="Path 9537" d="M1335.319 467.086a1.773 1.773 0 0 1 .426.744 3.425 3.425 0 0 1 .1 1.056c-.01.3-.034.609-.054.911s-.042.615-.07.92c-.026.277-.053.557-.1.824a1.329 1.329 0 0 1-.146.474 1.445 1.445 0 0 1-.34.337c-.15.122-.3.235-.456.341s-.488.429-.492.278l.339-6.433.1-.159.033.028a2.863 2.863 0 0 1 .225.214c.145.151.287.318.435.465z" transform="translate(-1334.08 -449.369)" style="fill:#5a0e07"/>
            <g data-name="Group 13710">
                <g data-name="Group 13709">
                    <path data-name="Path 9538" d="M1336.728 467.1a1.836 1.836 0 0 1 .385.745 3.813 3.813 0 0 1 .094 1.056c-.009.3-.03.608-.047.911s-.036.615-.061.92c-.022.277-.046.557-.087.824a1.441 1.441 0 0 1-.13.473 1.377 1.377 0 0 1-.3.336c-.135.122-.271.234-.409.339s-.438.428-.441.277l.291-6.432.086-.159.03.028a2.769 2.769 0 0 1 .2.215c.128.15.261.317.389.467z" transform="translate(-1335.617 -449.378)" style="fill:#906fe2"/>
                    <g data-name="Group 13708" style="isolation:isolate;mix-blend-mode:multiply">
                        <path data-name="Path 9539" d="m1337.437 493.121-.02.328c-.018.308-.036.615-.061.92-.022.277-.046.557-.087.824a1.437 1.437 0 0 1-.13.473 1.368 1.368 0 0 1-.3.336c-.135.122-.271.234-.409.34s-.438.428-.441.277l.157-3.471z" transform="translate(-1335.876 -473.018)" style="fill:#906fe2"/>
                    </g>
                </g>
                <path data-name="Path 9540" d="M1336.766 467.938a3.016 3.016 0 0 1 .961 1.68c.035.846-.214 3.41-.214 3.41a.6.6 0 0 1-.17.378l.22-2.925a3.049 3.049 0 0 0-.213-1.539 11.1 11.1 0 0 1-.584-1.004z" transform="translate(-1336.259 -450.749)" style="fill:#fff;mix-blend-mode:screen;isolation:isolate"/>
            </g>
        </g>
        <g data-name="Group 13712">
            <path data-name="Path 9541" d="m897.745 479.668-1.326.013s-.261.012-.154.289a3.109 3.109 0 0 0 .137.327s.032.144.289.19 1.794.112 1.794.112a.924.924 0 0 0 .549-.188c.332-.214.312-.572.2-.656 0 0 0-.039-.218-.078s-1.271-.009-1.271-.009z" transform="translate(-846.861 -461.111)" style="isolation:isolate;mix-blend-mode:multiply;fill:#906fe2"/>
            <path data-name="Path 9542" d="M900.048 480.288h-2.232s-.248 0-.283.139.1.262.438.285 1.639.076 1.639.076.486.025.645-.143.074-.345-.207-.357z" transform="translate(-848.038 -461.67)" style="fill:#906fe2"/>
        </g>
        <g data-name="Group 13713">
            <path data-name="Path 9543" d="m955.383 483.642-.013-1.041s-.012-.2-.288-.121-.327.108-.327.108a.269.269 0 0 0-.19.227c-.046.2-.112 1.407-.112 1.407a.617.617 0 0 0 .188.43.525.525 0 0 0 .656.155s.039 0 .078-.171a8.383 8.383 0 0 0 .008-.994z" transform="translate(-909.687 -463.592)" style="isolation:isolate;mix-blend-mode:multiply;fill:#906fe2"/>
            <path data-name="Path 9544" d="M955.587 485.2v-1.751s0-.195-.139-.222-.262.076-.285.343-.076 1.286-.076 1.286-.025.382.143.506.343.054.357-.162z" transform="translate(-909.952 -464.262)" style="fill:#906fe2"/>
        </g>
    </g>
</svg>
