<svg data-name="Name=Home Fill" xmlns="http://www.w3.org/2000/svg" width="24" height="24" viewBox="0 0 24 24">
    <defs>
        <clipPath id="s7phn1xnda">
            <path data-name="Rectangle 3" transform="translate(633 68)" style="stroke:#707070;fill:#fff" d="M0 0h24v24H0z"/>
        </clipPath>
    </defs>
    <path d="M0 0h24v24H0z" style="fill:none"/>
    <g data-name="Mask Group 1" transform="translate(-633 -68)" style="clip-path:url(#s7phn1xnda)">
        <g data-name="Group 3">
            <path data-name="Path 1" d="M-3912.393-6068.751a4.323 4.323 0 0 1-.386.46.633.633 0 0 1-.907.016.634.634 0 0 1 .009-.936c.522-.542 1.06-1.071 1.592-1.6l6.281-6.274a2.992 2.992 0 0 1 4.5 0q3.854 3.848 7.7 7.706c.139.139.336.319.333.479a1.1 1.1 0 0 1-.265.69.528.528 0 0 1-.737-.025c-.176-.142-.331-.31-.567-.535v7.997a1.875 1.875 0 0 1-2.059 2.048h-13.316a1.873 1.873 0 0 1-2.059-2.047V-6068.672zm5.609 8.729v-5a2.017 2.017 0 0 1 2.113-2.1h2.178a2.025 2.025 0 0 1 2.165 2.17v4.933h3.434c.58 0 .761-.187.761-.78 0-2.984 0-5.97-.01-8.956a.864.864 0 0 0-.229-.551q-2.922-2.954-5.869-5.884a1.7 1.7 0 0 0-2.623-.006q-2.941 2.935-5.869 5.884a.928.928 0 0 0-.238.587c-.018 1.8-.01 3.6-.01 5.406v3.63c0 .428.2.659.588.663 1.186.011 2.368.004 3.609.004zm5.165-.018v-5a.724.724 0 0 0-.817-.784c-.726-.006-1.451 0-2.177 0-.619 0-.875.261-.875.889v4.6c0 .1.018.2.028.306z" transform="translate(4548.578 6148.418)" style="stroke:#fff;stroke-width:.2px;fill:#fff"/>
        </g>
    </g>
</svg>
