<svg data-name="Name=Notification" xmlns="http://www.w3.org/2000/svg" width="24" height="24" viewBox="0 0 24 24">
    <path d="M0 0h24v24H0z" style="fill:none"/>
    <g data-name="Group 29">
        <path data-name="Path 473" d="M-5098.237-4682.513c-1.728-.177-3.44-.277-5.126-.544a3.8 3.8 0 0 1-2.711-5.625c1.464-2.577 1.163-1.883 1.207-4.8a6.654 6.654 0 0 1 5.834-6.547 6.579 6.579 0 0 1 7.29 5.259 11.413 11.413 0 0 1 .13 2.622 4.294 4.294 0 0 0 .744 2.61 5.054 5.054 0 0 1 .934 2.237 3.79 3.79 0 0 1-3.169 4.243c-1.704.258-3.429.371-5.133.545zm0-1.46c1.64-.169 3.3-.312 4.949-.523a2.28 2.28 0 0 0 1.881-1.912 2.434 2.434 0 0 0-.419-1.9 6.256 6.256 0 0 1-1.229-4.4 7.252 7.252 0 0 0 0-.818 5.162 5.162 0 0 0-4.432-5.042 5.1 5.1 0 0 0-5.742 3.894 11.367 11.367 0 0 0-.166 2.708 5.248 5.248 0 0 1-.841 3.009c-.2.321-.406.64-.578.976a2.382 2.382 0 0 0 1.667 3.483c1.618.234 3.247.353 4.908.525z" transform="translate(5110.241 4702.388)" style="fill:#fff"/>
        <path data-name="Path 474" d="M-5080.743-4621.219a3.286 3.286 0 0 1-2.6-1.346.734.734 0 0 1 .071-1.087.724.724 0 0 1 1.07.183 1.788 1.788 0 0 0 2.973 0 .727.727 0 0 1 1.07-.189.749.749 0 0 1 .072 1.091 3.244 3.244 0 0 1-2.656 1.348z" transform="translate(5092.726 4644.392)" style="fill:#fff"/>
    </g>
</svg>
