<svg data-name="Name=Search" xmlns="http://www.w3.org/2000/svg" width="24" height="24" viewBox="0 0 24 24">
    <path d="M0 0h24v24H0z" style="fill:none"/>
    <g data-name="Group 13164">
        <path data-name="Path 9317" d="M-6399.72-7142.715h-7.523a1.955 1.955 0 0 1-1.567-.606 2.018 2.018 0 0 1-.458-1.432c0-2.322 0-4.646.006-6.968a.6.6 0 0 0-.3-.615.76.76 0 0 1-.284-.556q-.038-1.761 0-3.522a1.7 1.7 0 0 1 1.63-1.719c1.105-.052 2.216-.035 3.324-.025a.444.444 0 0 0 .524-.382c.132-.5.323-.976.478-1.465a.692.692 0 0 1 .731-.536h6.889a.691.691 0 0 1 .731.537c.163.515.347 1.023.5 1.541a.369.369 0 0 0 .42.3c1-.013 2.006-.009 3.009 0a1.82 1.82 0 0 1 2.031 2.026v3.168a.8.8 0 0 1-.381.726.664.664 0 0 0-.206.484c-.013 2.322.005 4.645-.021 6.967a2.948 2.948 0 0 1-.292 1.243 1.465 1.465 0 0 1-1.286.8c-.592.03-1.186.029-1.78.03q-3.087.007-6.175.004zm2.733-7.426a.381.381 0 0 0 .107-.01c1.971-.977 3.943-1.951 5.906-2.942a.484.484 0 0 0 .194-.366c.017-.911.01-1.82.008-2.731 0-.583-.195-.78-.786-.78h-16.3c-.62 0-.807.19-.809.8 0 .884.012 1.769-.007 2.652a.472.472 0 0 0 .325.5c1.856.91 3.707 1.835 5.558 2.755.1.05.209.095.324.146a1.933 1.933 0 0 1 1.869-.918c.553.018 1.108.021 1.661 0a1.962 1.962 0 0 1 1.95.894zm5.622-1.369a1.351 1.351 0 0 0-.23.065c-1.665.827-3.33 1.65-4.988 2.49a.731.731 0 0 0-.284.342 1.7 1.7 0 0 1-1.543 1.121c-.882.03-1.768.03-2.65 0a1.72 1.72 0 0 1-1.5-1.069 1.094 1.094 0 0 0-.432-.455c-1.549-.79-3.11-1.559-4.667-2.333-.115-.058-.234-.106-.417-.187v6.771c0 .708.155.861.867.861h14.966c.729 0 .876-.151.876-.891v-6.295zm-4.835-6.68c-.121-.361-.215-.687-.345-1a.35.35 0 0 0-.269-.152q-2.9-.012-5.81 0a.351.351 0 0 0-.27.151c-.129.312-.224.638-.345 1zm-3.509 8.35c-.4 0-.793-.014-1.188 0a.563.563 0 0 0-.593.563.559.559 0 0 0 .592.6q1.167.026 2.336 0a.565.565 0 0 0 .612-.584.569.569 0 0 0-.611-.585c-.382-.008-.766.006-1.148.006z" transform="translate(6411.722 7163.627)" style="fill:#bcbcbc;stroke:#bcbcbc;stroke-width:.2px"/>
    </g>
</svg>
