<svg data-name="Name=Phone" xmlns="http://www.w3.org/2000/svg" width="16" height="16" viewBox="0 0 16 16">
    <path d="M0 0h16v16H0z" style="fill:none"/>
    <g data-name="Group 13472">
        <path data-name="Path 9368" d="M-6696.415-7194.183a5.684 5.684 0 0 0 1.167 1.575 6.223 6.223 0 0 0 1.483 1.151.2.2 0 0 0 .28-.042c.211-.222.428-.441.658-.645a.938.938 0 0 1 1.347.007c.456.433.9.877 1.331 1.335a.973.973 0 0 1 .02 1.4 11.863 11.863 0 0 1-.873.894 1.854 1.854 0 0 1-1.713.365 7.028 7.028 0 0 1-2.436-1.03 10.5 10.5 0 0 1-4.074-4.614 5.011 5.011 0 0 1-.452-1.565 1.805 1.805 0 0 1 .548-1.6c.223-.211.431-.438.651-.652a1.019 1.019 0 0 1 1.557-.009q.606.584 1.188 1.188a1 1 0 0 1 .01 1.54c-.216.237-.45.457-.692.702zm4.283 5.5a1.067 1.067 0 0 0 .838-.366c.209-.225.43-.439.643-.66.278-.289.278-.484-.006-.772q-.576-.582-1.159-1.158a.417.417 0 0 0-.688-.008c-.24.233-.474.474-.711.708a.451.451 0 0 1-.642.1 9.813 9.813 0 0 1-1.146-.747 6.771 6.771 0 0 1-1.966-2.378.482.482 0 0 1 .127-.66c.229-.224.461-.446.686-.676a.422.422 0 0 0 0-.7q-.588-.6-1.186-1.189a.431.431 0 0 0-.7-.005c-.25.241-.494.491-.739.739a1.094 1.094 0 0 0-.312.775 3.233 3.233 0 0 0 .283 1.332 9.816 9.816 0 0 0 4.949 5.2 4.263 4.263 0 0 0 1.729.469z" transform="translate(6702.45 7201.315)" style="fill:#8366bd;stroke:#8366bd;stroke-width:.25px"/>
        <path data-name="Path 9369" d="M-6688.024-7194.041a.288.288 0 0 1-.235.3.271.271 0 0 1-.34-.188c-.058-.189-.087-.385-.146-.573a5.011 5.011 0 0 0-3.888-3.583c-.085-.02-.2-.031-.241-.089a.507.507 0 0 1-.092-.341c.034-.157.183-.208.344-.177a5.516 5.516 0 0 1 2.026.788 5.614 5.614 0 0 1 2.551 3.768c.006.036.014.064.021.095z" transform="translate(6701.265 7201.444)" style="fill:#8366bd;stroke:#8366bd;stroke-width:.25px"/>
        <path data-name="Path 9370" d="M-6689.953-7193.553a.283.283 0 0 1-.244.312.277.277 0 0 1-.334-.2c-.046-.143-.065-.294-.116-.434a2.807 2.807 0 0 0-2.062-1.887c-.046-.012-.093-.02-.139-.032a.3.3 0 0 1-.254-.355.292.292 0 0 1 .372-.227 3.363 3.363 0 0 1 2.039 1.193 3.375 3.375 0 0 1 .709 1.456c.013.059.02.12.029.174z" transform="translate(6701.289 7201.035)" style="fill:#8366bd;stroke:#8366bd;stroke-width:.25px"/>
    </g>
</svg>
