<svg data-name="Name=Envelope" xmlns="http://www.w3.org/2000/svg" width="16" height="16" viewBox="0 0 16 16">
    <path d="M0 0h16v16H0z" style="fill:none"/>
    <path data-name="Vector" d="M.6 0h10.8a.625.625 0 0 1 .424.163.536.536 0 0 1 .176.393v8.888a.536.536 0 0 1-.176.393.625.625 0 0 1-.424.163H.6a.625.625 0 0 1-.424-.163A.536.536 0 0 1 0 9.444V.556A.536.536 0 0 1 .176.163.625.625 0 0 1 .6 0zm10.2 2.354L6.043 6.3 1.2 2.342v6.547h9.6zM1.507 1.111l4.53 3.7 4.465-3.7z" transform="translate(2 3)" style="fill:#8366bd"/>
</svg>
