<svg data-name="Evento Icons" xmlns="http://www.w3.org/2000/svg" width="24" height="24" viewBox="0 0 24 24">
    <path d="M0 0h24v24H0z" style="fill:none"/>
    <path data-name="Vector" d="m8.166 12.172-1.931-.518.787-2.939a10.988 10.988 0 0 1-3.237-1.872L1.632 9 .217 7.582l2.154-2.153A10.957 10.957 0 0 1 0 .359L1.968 0a9 9 0 0 0 8.856 7.39A9 9 0 0 0 19.68 0l1.968.358a10.957 10.957 0 0 1-2.37 5.071l2.153 2.153L20.016 9l-2.153-2.157a10.988 10.988 0 0 1-3.237 1.872l.787 2.94-1.931.517-.788-2.94a11.072 11.072 0 0 1-3.74 0z" transform="translate(1.176 6.61)" style="fill:#bcbcbc"/>
</svg>
