<svg data-name="Evento Icons" xmlns="http://www.w3.org/2000/svg" width="24" height="24" viewBox="0 0 24 24">
    <path d="M0 0h24v24H0z" style="fill:none"/>
    <path data-name="Vector" d="M8.166 0 6.235.518l.787 2.939a10.988 10.988 0 0 0-3.237 1.872L1.632 3.175.217 4.59l2.154 2.153A10.957 10.957 0 0 0 0 11.813l1.968.359a9 9 0 0 1 17.712 0l1.968-.358a10.957 10.957 0 0 0-2.37-5.071l2.153-2.153-1.415-1.415-2.153 2.154a10.988 10.988 0 0 0-3.237-1.872l.787-2.94L13.482 0l-.788 2.94a11.072 11.072 0 0 0-3.74 0z" transform="translate(1.176 6.61)" style="fill:#bcbcbc"/>
</svg>
